# xmcd
#
# Track frame offsets:
#	182
#	19072
#	37730
#	57707
#	73925
#	90105
#	108595
#	128130
#	144365
#	163067
#	182460
#	196625
#	209460
#	228047
#	241152
#	252612
#
# Disc length: 3542 seconds
#
# Revision: 0
# Processed by: cddbd v1.5.1PL0 Copyright (c) Steve Scherf et al.
# Submitted via: dBpowerAMP V4.0
#
DISCID=d30dd410
DTITLE=Various Artist - Hit des Slows
DYEAR=1900
DGENRE=Slow Rock
TTITLE0=Je ne te suffis pas - F.François - Mickaela
TTITLE1=Eveything I do - B. Adams
TTITLE2=Senza Una Donna - Zucchero Fornaciari
TTITLE3=E Vado Via - Barbelivien - Felix Gray
TTITLE4=Unchanined Melody - Hy zaret - A.North
TTITLE5=Comme d'habitude - G. Thibault - J. Revaux - C. François
TTITLE6=Lemon Incest - S. Gainsbourg
TTITLE7=Les Yeux Révolvers - Marc Lavoine
TTITLE8=T'Aimer encore une fois - Carris - Power - Carrere - Buggy
TTITLE9=Les mots bleus - J.M jarre - Christophe
TTITLE10=Céline - H. Auffray - Uline Buggy - Mort Shuman
TTITLE11=San Francisco - Philips
TTITLE12=Night In White Satin - Redwawe
TTITLE13=I Started a joke - B.R.M Gibb
TTITLE14=Tu n'es plus là - Nelson
TTITLE15=Stand bye me - Ben-E. King 
EXTD=ARC Records - René Chmiel
EXTT0=
EXTT1=
EXTT2=
EXTT3=
EXTT4=
EXTT5=
EXTT6=
EXTT7=
EXTT8=
EXTT9=
EXTT10=
EXTT11=
EXTT12=
EXTT13=
EXTT14=
EXTT15=
PLAYORDER=
